<?xml version="1.0" encoding="UTF-8"?>
<svg width="256" height="256" viewBox="0 0 256 256" xmlns="http://www.w3.org/2000/svg" role="img" aria-label="ResumeCraft Logo">
  <defs>
    <linearGradient id="g" x1="0" x2="1" y1="0" y2="1">
      <stop offset="0%" stop-color="#7C3AED"/>
      <stop offset="50%" stop-color="#DB2777"/>
      <stop offset="100%" stop-color="#F59E0B"/>
    </linearGradient>
    <filter id="s" x="-20%" y="-20%" width="140%" height="140%">
      <feDropShadow dx="0" dy="6" stdDeviation="10" flood-color="rgba(0,0,0,0.2)"/>
    </filter>
  </defs>
  <rect x="16" y="16" width="224" height="224" rx="48" fill="url(#g)" />
  <g filter="url(#s)">
    <circle cx="88" cy="112" r="44" fill="white" opacity="0.15"/>
  </g>
  <g fill="white">
    <!-- Stylized RC monogram -->
    <path d="M78 174V84h35c20 0 32 11 32 28 0 13-7 23-19 26l22 36h-22l-20-34h-10v34H78zm23-50h18c9 0 14-5 14-12 0-8-5-12-14-12h-18v24z" />
    <path d="M180 172c-18 0-32-14-32-32s14-32 32-32c7 0 13 2 18 6l-9 11c-3-2-6-3-9-3-9 0-16 7-16 18s7 18 16 18c5 0 9-2 12-6l10 10c-6 7-15 10-24 10z" />
  </g>
</svg>